<svg width="30" height="25" viewBox="0 0 30 25" fill="none" xmlns="http://www.w3.org/2000/svg">
<path d="M26.4662 3.82068C27.7518 3.05644 28.7138 1.85307 29.1725 0.435231C27.9644 1.14798 26.6427 1.65005 25.2644 1.91975C23.3535 -0.0902306 20.3258 -0.579369 17.8732 0.725655C15.4206 2.03068 14.1503 4.80678 14.772 7.50275C9.82351 7.25572 5.21317 4.93146 2.08815 1.10833C0.457271 3.90542 1.29069 7.48105 3.99273 9.27962C3.01565 9.24838 2.06023 8.98533 1.20614 8.5124C1.20614 8.53807 1.20614 8.56374 1.20614 8.58941C1.2067 11.5031 3.27188 14.0128 6.14399 14.5902C5.23769 14.8354 4.28703 14.8715 3.36457 14.6958C4.17229 17.1875 6.48181 18.8945 9.11416 18.9454C6.93398 20.6469 4.24153 21.5696 1.47003 21.5651C0.97878 21.5658 0.48792 21.5377 0 21.4809C2.8144 23.2792 6.09002 24.2337 9.43541 24.2304C14.0897 24.2621 18.5625 22.4377 21.8535 19.165C25.1445 15.8924 26.979 11.4447 26.9466 6.81682C26.9466 6.55158 26.9404 6.28776 26.928 6.02536C28.1334 5.15918 29.1736 4.08614 30 2.85667C28.8771 3.3516 27.6859 3.67654 26.4662 3.82068Z" fill="#353535"/>
</svg>
