<svg width="30" height="30" viewBox="0 0 30 30" fill="none" xmlns="http://www.w3.org/2000/svg">
<path d="M14.9917 30C10.8939 30 10.4109 29.9784 8.81177 29.9085C7.56475 29.8676 6.33387 29.6144 5.17213 29.16C3.1621 28.3789 1.57269 26.7912 0.791227 24.7838C0.353647 23.6195 0.117631 22.3894 0.0932815 21.146C0 19.5526 0 19.0303 0 14.9701C0 10.8666 0.0216546 10.3876 0.0932815 8.79907C0.118164 7.55742 0.354172 6.32902 0.791227 5.16633C1.57185 3.15624 3.16383 1.56715 5.17712 0.788423C6.34088 0.349638 7.57137 0.113347 8.8151 0.0898204C10.4059 0 10.9289 0 14.9917 0C19.1227 0 19.5974 0.0216234 21.1716 0.0898204C22.4185 0.113551 23.6523 0.349816 24.8195 0.788423C26.8323 1.56804 28.4239 3.15681 29.2054 5.16633C29.6504 6.34596 29.8877 7.59357 29.9067 8.85396C30 10.4474 30 10.9681 30 15.0266C30 19.0852 29.9767 19.6174 29.9067 21.1926C29.8819 22.4371 29.6453 23.6684 29.2071 24.8337C28.4236 26.8425 26.8319 28.4308 24.8195 29.2116C23.6539 29.6477 22.4227 29.8833 21.1782 29.9085C19.5875 30 19.0661 30 14.9917 30ZM14.935 2.63307C10.8606 2.63307 10.4375 2.65303 8.84675 2.72455C7.89725 2.73711 6.95693 2.91208 6.06663 3.24185C4.75195 3.74419 3.71165 4.77876 3.20322 6.08949C2.87043 6.98819 2.69518 7.93742 2.68517 8.89554C2.59689 10.5073 2.59689 10.9298 2.59689 14.9701C2.59689 18.9621 2.61188 19.4461 2.68517 21.0479C2.70009 21.9963 2.87523 22.9355 3.20322 23.8257C3.7124 25.1355 4.75252 26.1693 6.06663 26.6717C6.95633 27.0036 7.89703 27.1787 8.84675 27.189C10.4592 27.2821 10.884 27.2821 14.935 27.2821C19.0211 27.2821 19.4442 27.2621 21.0217 27.189C21.9718 27.1774 22.9128 27.0024 23.8034 26.6717C25.1102 26.165 26.1437 25.1335 26.6519 23.829C26.984 22.9296 27.1592 21.9799 27.1699 21.0213H27.1882C27.2599 19.4311 27.2599 19.007 27.2599 14.9434C27.2599 10.8799 27.2415 10.4524 27.1699 8.86394C27.155 7.91658 26.9798 6.97856 26.6519 6.08949C26.1448 4.78305 25.1112 3.74965 23.8034 3.24185C22.913 2.91041 21.9719 2.7354 21.0217 2.72455C19.4109 2.63307 18.9895 2.63307 14.935 2.63307ZM14.9917 22.653C11.8767 22.655 9.06733 20.783 7.87373 17.9099C6.68013 15.0369 7.33743 11.7288 9.53909 9.52838C11.7407 7.328 15.0531 6.66878 17.9313 7.85817C20.8095 9.04756 22.6867 11.8513 22.6874 14.9617C22.6828 19.205 19.2411 22.6448 14.9917 22.653ZM14.9917 9.9684C12.2318 9.9684 9.99445 12.2025 9.99445 14.9584C9.99445 17.7143 12.2318 19.9484 14.9917 19.9484C17.7516 19.9484 19.9889 17.7143 19.9889 14.9584C19.9825 12.2052 17.7489 9.9748 14.9917 9.9684ZM22.9872 8.78244C21.9968 8.77876 21.1964 7.97503 21.1982 6.98604C21.2001 5.99705 22.0035 5.19629 22.9939 5.19629C23.9843 5.19629 24.7877 5.99704 24.7896 6.98603C24.79 7.46318 24.6002 7.92086 24.262 8.25795C23.9238 8.59503 23.4651 8.78376 22.9872 8.78244Z" fill="#353535"/>
</svg>
