<svg width="30" height="30" viewBox="0 0 30 30" fill="none" xmlns="http://www.w3.org/2000/svg">
<path d="M15.0006 30C8.93314 30.0079 3.46005 26.3551 1.13943 20.7488C-1.18118 15.1425 0.109004 8.69008 4.40698 4.40726C8.18918 0.611339 13.7108 -0.875315 18.8876 0.508478C24.0643 1.89227 28.1078 5.93575 29.4915 11.1126C30.8753 16.2894 29.3887 21.8111 25.5928 25.5934C22.7922 28.4179 18.9782 30.0046 15.0006 30ZM12.7756 19.8986C15.5347 19.841 18.2542 20.5611 20.6233 21.9765C20.7694 22.0745 20.9413 22.1268 21.1172 22.1267C21.4378 22.1186 21.7326 21.9492 21.9009 21.6763C22.032 21.4233 22.0547 21.128 21.964 20.858C21.8872 20.6527 21.7276 20.4892 21.5241 20.4076C18.8567 18.8209 15.7974 18.0151 12.6945 18.0819C10.7694 18.0967 8.85164 18.3227 6.97582 18.7561C6.48401 18.8871 6.18498 19.3848 6.3002 19.8806C6.41632 20.2807 6.77163 20.5645 7.18751 20.5893C7.26732 20.589 7.34669 20.5773 7.42323 20.5547C9.17734 20.1373 10.9726 19.9172 12.7756 19.8986ZM12.4904 15.4305C15.8659 15.3907 19.191 16.2516 22.1231 17.9243C22.2902 18.0457 22.4916 18.1109 22.6982 18.1105C23.1027 18.0947 23.4754 17.8866 23.7011 17.5504C23.8774 17.2932 23.9323 16.9717 23.8512 16.6706C23.7963 16.4096 23.6324 16.1844 23.4008 16.052C20.0854 14.1374 16.3173 13.1466 12.4889 13.1829C10.4707 13.1705 8.46152 13.4538 6.52541 14.0237C5.9305 14.2195 5.59829 14.852 5.77472 15.453C5.922 15.9386 6.38034 16.2621 6.88724 16.2382C6.99499 16.2393 7.10245 16.2267 7.20703 16.2007C8.91827 15.6747 10.7002 15.415 12.4904 15.4305ZM12.7741 10.7942C16.6236 10.6831 20.4371 11.562 23.8497 13.3465C24.0798 13.4723 24.3382 13.5369 24.6004 13.5342C25.0659 13.5439 25.5096 13.337 25.8015 12.9742C25.983 12.6421 26.0303 12.2531 25.9336 11.8872C25.8432 11.5221 25.6064 11.2104 25.279 11.0254C21.4306 8.97996 17.1188 7.96419 12.7621 8.07666C10.3497 8.05183 7.94561 8.36208 5.61858 8.99851C4.96494 9.20066 4.55968 9.853 4.66805 10.5286C4.77643 11.2041 5.3654 11.697 6.04947 11.6845C6.18266 11.6846 6.31516 11.6654 6.44283 11.6274C8.50163 11.0437 10.6344 10.7625 12.7741 10.7927V10.7942Z" fill="#353535"/>
</svg>
