<svg width="30" height="30" viewBox="0 0 30 30" fill="none" xmlns="http://www.w3.org/2000/svg">
<path d="M6.67501 2.64855e-05C5.79775 -0.00244819 4.92865 0.168516 4.11768 0.503089C3.30672 0.837662 2.56989 1.32924 1.94957 1.94957C1.32924 2.56989 0.837662 3.30672 0.503089 4.11768C0.168516 4.92865 -0.00244819 5.79775 2.64855e-05 6.67501V23.325C-0.00244819 24.2023 0.168516 25.0714 0.503089 25.8823C0.837662 26.6933 1.32924 27.4301 1.94957 28.0504C2.56989 28.6708 3.30672 29.1623 4.11768 29.4969C4.92865 29.8315 5.79775 30.0024 6.67501 30H23.325C24.2023 30.0024 25.0714 29.8315 25.8823 29.4969C26.6933 29.1623 27.4301 28.6708 28.0504 28.0504C28.6708 27.4301 29.1623 26.6933 29.4969 25.8823C29.8315 25.0714 30.0024 24.2023 30 23.325V6.67501C30.0024 5.79775 29.8315 4.92865 29.4969 4.11768C29.1623 3.30672 28.6708 2.56989 28.0504 1.94957C27.4301 1.32924 26.6933 0.837662 25.8823 0.503089C25.0714 0.168516 24.2023 -0.00244819 23.325 2.64855e-05H6.67501ZM14.8284 3.20721C17.7487 3.20721 20.3897 4.33596 22.4025 6.44439C23.9315 8.03157 24.7903 9.71532 25.23 11.9334C25.3809 12.6713 25.3809 14.6822 25.2384 15.5119C24.7716 18.15 23.3262 20.5148 21.1912 22.1334C20.43 22.71 18.5691 23.7112 18.2709 23.7112C18.1584 23.7112 18.15 23.5987 18.1987 23.1347C18.2916 22.3922 18.3787 22.2412 18.7987 22.065C19.4672 21.7875 20.61 20.9709 21.3084 20.2734C22.5295 19.0527 23.3968 17.5238 23.8181 15.8494C24.0815 14.8181 24.0469 12.5278 23.759 11.4694C22.8506 8.09908 20.0962 5.48345 16.7278 4.77939C15.7519 4.57971 13.9688 4.57971 12.9778 4.77939C9.56907 5.48345 6.74626 8.2322 5.88752 11.6897C5.65783 12.6309 5.65783 14.9222 5.88752 15.8597C6.45845 18.15 7.93876 20.2481 9.87657 21.4987C10.2581 21.7528 10.7166 22.0115 10.9078 22.0903C11.3269 22.2703 11.4206 22.4231 11.4975 23.159C11.5463 23.6137 11.5359 23.7403 11.43 23.7403C11.3616 23.7403 10.8488 23.52 10.3059 23.2612L10.2572 23.2228C7.16626 21.7041 5.18814 19.1316 4.46627 15.7078C4.29096 14.8237 4.25627 12.72 4.43252 11.9091C4.88158 9.73126 5.74127 8.03251 7.17095 6.52877C9.23251 4.35471 11.8838 3.20721 14.8322 3.20721H14.8284ZM15 6.72376C15.4635 6.72266 15.926 6.76662 16.3809 6.85501C19.8637 7.63126 22.3284 11.1141 21.8494 14.5697C21.659 15.9656 21.1809 17.1094 20.3316 18.1734C19.9116 18.7106 18.8906 19.6097 18.7106 19.6097C18.6806 19.6097 18.6516 19.2675 18.6516 18.8569V18.0994L19.1691 17.4797C21.1312 15.1313 20.9906 11.85 18.8512 9.7022C18.0216 8.8622 17.0587 8.36814 15.8184 8.14501C15.0187 7.99407 14.8519 7.99408 14.0119 8.1347C12.7331 8.34001 11.7459 8.8322 10.8666 9.7022C8.71876 11.8313 8.57626 15.1313 10.5403 17.4797L11.0578 18.0994V18.8616C11.0578 19.2816 11.0231 19.6181 10.9791 19.6181C10.9453 19.6181 10.6519 19.4184 10.3388 19.1691L10.2947 19.1541C9.25501 18.3244 8.3372 16.8544 7.95564 15.4088C7.72689 14.535 7.72689 12.8803 7.96595 12.0103C8.59595 9.66188 10.3294 7.84032 12.7275 6.98626C13.2403 6.80533 14.1422 6.70783 14.9925 6.72283L15 6.72376ZM14.8341 10.4588C15.225 10.4588 15.6103 10.5375 15.8944 10.6838C16.4991 11.0016 17.0034 11.6109 17.1928 12.2559C17.7741 14.2284 15.6844 15.9572 13.7888 15.0731H13.7747C12.8813 14.6578 12.4022 13.8769 12.3919 12.8606C12.3919 11.9428 12.8991 11.1469 13.7831 10.6781C14.0616 10.5319 14.4478 10.4578 14.8378 10.4578L14.8341 10.4588ZM14.8238 16.3725C16.0603 16.3678 16.9528 16.8066 17.2847 17.5828C17.5331 18.1641 17.4412 19.995 17.0109 22.9594C16.7231 25.0294 16.5619 25.5515 16.1625 25.904C15.6103 26.3915 14.8341 26.5294 14.0916 26.265H14.0878C13.1944 25.9425 13.0031 25.5075 12.6319 22.9584C12.2081 19.995 12.1144 18.1631 12.3647 17.5819C12.6909 16.8103 13.5797 16.3772 14.8247 16.3716L14.8238 16.3725Z" fill="#353535"/>
</svg>
