<svg width="31" height="31" viewBox="0 0 31 31" fill="none" xmlns="http://www.w3.org/2000/svg">
<path d="M15.8329 30.1007C9.80312 30.1084 4.36402 26.5357 2.05782 21.0524C-0.248386 15.5691 1.03379 9.2582 5.30506 5.06932C9.06378 1.35666 14.5511 -0.0973889 19.6957 1.25605C24.8403 2.6095 28.8586 6.56429 30.2338 11.6276C31.609 16.6909 30.1316 22.0915 26.3593 25.7908C23.5761 28.5533 19.7857 30.1052 15.8329 30.1007ZM13.6217 20.2209C16.3636 20.1646 19.0663 20.8689 21.4206 22.2532C21.5658 22.3491 21.7367 22.4002 21.9115 22.4001C22.2301 22.3922 22.5231 22.2265 22.6904 21.9596C22.8206 21.7122 22.8432 21.4233 22.753 21.1592C22.6768 20.9584 22.5181 20.7985 22.3159 20.7187C19.6651 19.1668 16.6248 18.3787 13.5412 18.4441C11.6279 18.4585 9.72213 18.6796 7.85795 19.1034C7.3692 19.2316 7.07202 19.7184 7.18653 20.2033C7.30193 20.5946 7.65503 20.8722 8.06833 20.8964C8.14765 20.8961 8.22652 20.8847 8.30258 20.8626C10.0458 20.4544 11.8299 20.2391 13.6217 20.2209ZM13.3382 15.8508C16.6928 15.8119 19.9972 16.6538 22.9112 18.2899C23.0772 18.4086 23.2774 18.4724 23.4826 18.472C23.8847 18.4566 24.2551 18.253 24.4793 17.9242C24.6546 17.6727 24.7091 17.3582 24.6285 17.0637C24.574 16.8084 24.4111 16.5882 24.1809 16.4587C20.8861 14.586 17.1414 13.617 13.3367 13.6525C11.3311 13.6404 9.33443 13.9174 7.41034 14.4748C6.81913 14.6663 6.48898 15.285 6.66432 15.8728C6.81068 16.3478 7.26618 16.6642 7.76992 16.6408C7.87701 16.6418 7.9838 16.6295 8.08773 16.6041C9.78834 16.0897 11.5592 15.8356 13.3382 15.8508ZM13.6202 11.3161C17.4458 11.2075 21.2356 12.0671 24.627 13.8125C24.8557 13.9355 25.1125 13.9987 25.3731 13.9961C25.8357 14.0056 26.2767 13.8032 26.5667 13.4484C26.7471 13.1236 26.7941 12.7431 26.698 12.3852C26.6081 12.0282 26.3728 11.7233 26.0475 11.5423C22.223 9.54173 17.938 8.54823 13.6083 8.65824C11.2109 8.63395 8.82172 8.9374 6.50914 9.55987C5.85956 9.75759 5.45682 10.3956 5.56452 11.0564C5.67222 11.7171 6.25753 12.1991 6.93736 12.1869C7.06972 12.1871 7.2014 12.1683 7.32828 12.1311C9.37428 11.5602 11.4938 11.2852 13.6202 11.3147V11.3161Z" fill="#FFFFF7"/>
</svg>
