<svg width="31" height="30" viewBox="0 0 31 30" fill="none" xmlns="http://www.w3.org/2000/svg">
<g clip-path="url(#clip0)">
<path d="M7.55901 0.500896C6.68719 0.498475 5.82348 0.66569 5.01755 0.992926C4.21162 1.32016 3.47937 1.80096 2.8629 2.40768C2.24643 3.0144 1.7579 3.73507 1.4254 4.52824C1.09291 5.32142 0.923005 6.17146 0.925464 7.02949V23.3143C0.923005 24.1723 1.09291 25.0224 1.4254 25.8155C1.7579 26.6087 2.24643 27.3294 2.8629 27.9361C3.47937 28.5428 4.21162 29.0236 5.01755 29.3509C5.82348 29.6781 6.68719 29.8453 7.55901 29.8429H24.1056C24.9774 29.8453 25.8411 29.6781 26.647 29.3509C27.453 29.0236 28.1852 28.5428 28.8017 27.9361C29.4182 27.3294 29.9067 26.6087 30.2392 25.8155C30.5717 25.0224 30.7416 24.1723 30.7391 23.3143V7.02949C30.7416 6.17146 30.5717 5.32142 30.2392 4.52824C29.9067 3.73507 29.4182 3.0144 28.8017 2.40768C28.1852 1.80096 27.453 1.32016 26.647 0.992926C25.8411 0.66569 24.9774 0.498475 24.1056 0.500896H7.55901ZM15.6618 3.63774C18.564 3.63774 21.1885 4.74173 23.1888 6.80392C24.7084 8.3563 25.5618 10.0031 25.9988 12.1726C26.1488 12.8942 26.1488 14.8611 26.0071 15.6725C25.5432 18.2529 24.1068 20.5658 21.9851 22.1489C21.2286 22.7128 19.3792 23.6921 19.0829 23.6921C18.9711 23.6921 18.9627 23.582 19.0112 23.1282C19.1034 22.4019 19.1901 22.2543 19.6075 22.0819C20.2717 21.8105 21.4075 21.0119 22.1016 20.3297C23.315 19.1357 24.177 17.6403 24.5957 16.0026C24.8575 14.994 24.823 12.7539 24.537 11.7187C23.6342 8.42232 20.8969 5.86406 17.5494 5.17544C16.5795 4.98014 14.8075 4.98014 13.8227 5.17544C10.4351 5.86406 7.62981 8.55252 6.7764 11.9342C6.54814 12.8548 6.54814 15.0958 6.7764 16.0127C7.34379 18.2528 8.81491 20.3049 10.7407 21.5281C11.1199 21.7766 11.5755 22.0297 11.7655 22.1067C12.182 22.2827 12.2752 22.4322 12.3516 23.152C12.4 23.5967 12.3898 23.7205 12.2845 23.7205C12.2165 23.7205 11.7068 23.505 11.1674 23.2519L11.1189 23.2144C8.0472 21.7289 6.08137 19.2128 5.36397 15.8642C5.18975 14.9995 5.15528 12.9419 5.33043 12.1488C5.77671 10.0187 6.63105 8.35722 8.05186 6.88645C10.1006 4.76007 12.7354 3.63774 15.6655 3.63774H15.6618ZM15.8323 7.07717C16.2929 7.07609 16.7525 7.11908 17.2047 7.20554C20.6658 7.96477 23.1152 11.3712 22.6391 14.751C22.45 16.1163 21.9748 17.235 21.1307 18.2757C20.7134 18.8011 19.6988 19.6805 19.5199 19.6805C19.4901 19.6805 19.4612 19.3458 19.4612 18.9442V18.2033L19.9755 17.5972C21.9255 15.3003 21.7857 12.091 19.6596 9.99028C18.8351 9.16871 17.8783 8.68548 16.6457 8.46725C15.8509 8.31962 15.6851 8.31962 14.8503 8.45716C13.5795 8.65797 12.5984 9.13936 11.7245 9.99028C9.59006 12.0726 9.44845 15.3003 11.4003 17.5972L11.9146 18.2033V18.9488C11.9146 19.3595 11.8801 19.6887 11.8363 19.6887C11.8028 19.6887 11.5112 19.4934 11.2 19.2495L11.1562 19.2348C10.123 18.4234 9.21087 16.9856 8.83168 15.5717C8.60435 14.7171 8.60435 13.0987 8.84192 12.2478C9.46801 9.95085 11.1907 8.16924 13.5739 7.33391C14.0835 7.15694 14.9798 7.06158 15.8248 7.07625L15.8323 7.07717ZM15.6674 10.7303C16.0559 10.7303 16.4388 10.8073 16.7211 10.9503C17.3221 11.2612 17.8233 11.8572 18.0115 12.488C18.5891 14.4173 16.5124 16.1081 14.6286 15.2434H14.6146C13.7267 14.8372 13.2506 14.0734 13.2404 13.0794C13.2404 12.1818 13.7444 11.4033 14.623 10.9448C14.8997 10.8018 15.2835 10.7293 15.6711 10.7293L15.6674 10.7303ZM15.6571 16.5143C16.886 16.5097 17.773 16.9388 18.1028 17.6981C18.3497 18.2666 18.2584 20.0573 17.8307 22.9567C17.5447 24.9813 17.3845 25.492 16.9876 25.8368C16.4388 26.3136 15.6674 26.4484 14.9295 26.1898H14.9258C14.0379 25.8744 13.8478 25.4489 13.4789 22.9558C13.0578 20.0573 12.9646 18.2656 13.2134 17.6971C13.5376 16.9425 14.4208 16.5189 15.6581 16.5134L15.6571 16.5143Z" fill="#FFFFF7"/>
</g>
<defs>
<clipPath id="clip0">
<rect width="29.8137" height="29.342" fill="white" transform="translate(0.925465 0.5009)"/>
</clipPath>
</defs>
</svg>
